<svg width="40" height="40" viewBox="0 0 40 40" fill="none" xmlns="http://www.w3.org/2000/svg">
<g id="graphic 1">
<g clip-path="url(#clip0_1_100)">
<g id="Group">
<path id="Vector" d="M38.8281 37.6562H2.34375V1.17188C2.34375 0.524141 1.81961 0 1.17188 0C0.524141 0 0 0.524141 0 1.17188V38.8281C0 39.4759 0.524141 40 1.17188 40H38.8281C39.4759 40 40 39.4759 40 38.8281C40 38.1804 39.4759 37.6562 38.8281 37.6562Z" fill="#FC195A"/>
<path id="Vector_2" d="M5.85938 35.3125H10.625C11.2727 35.3125 11.7969 34.7884 11.7969 34.1406V27.0312C11.7969 26.3835 11.2727 25.8594 10.625 25.8594H5.85938C5.21164 25.8594 4.6875 26.3835 4.6875 27.0312V34.1406C4.6875 34.7884 5.21164 35.3125 5.85938 35.3125Z" fill="#FC195A"/>
<path id="Vector_3" d="M15.3125 21.1719C14.6648 21.1719 14.1406 21.696 14.1406 22.3438V34.1406C14.1406 34.7884 14.6648 35.3125 15.3125 35.3125H20C20.6477 35.3125 21.1719 34.7884 21.1719 34.1406V22.3438C21.1719 21.696 20.6477 21.1719 20 21.1719H15.3125Z" fill="#FC195A"/>
<path id="Vector_4" d="M24.6875 16.4844C24.0398 16.4844 23.5156 17.0085 23.5156 17.6562V34.1406C23.5156 34.7884 24.0398 35.3125 24.6875 35.3125H29.375C30.0227 35.3125 30.5469 34.7884 30.5469 34.1406V17.6562C30.5469 17.0085 30.0227 16.4844 29.375 16.4844H24.6875Z" fill="#FC195A"/>
<path id="Vector_5" d="M38.8281 11.7969H34.0625C33.4148 11.7969 32.8906 12.321 32.8906 12.9688V34.1406C32.8906 34.7884 33.4148 35.3125 34.0625 35.3125H38.8281C39.4759 35.3125 40 34.7884 40 34.1406V12.9688C40 12.321 39.4759 11.7969 38.8281 11.7969Z" fill="#FC195A"/>
<path id="Vector_6" d="M4.82711 20.555C5.13641 21.1299 5.85125 21.3358 6.41437 21.0322L33.7024 6.38078L33.0142 7.75711C32.7247 8.33617 32.9593 9.04 33.5383 9.32953C34.1227 9.61961 34.8224 9.38047 35.1108 8.80539L37.4545 4.11789C37.6365 3.75508 37.617 3.32367 37.403 2.97805C37.189 2.63242 36.8125 2.42188 36.4062 2.42188H30.5469C29.8991 2.42188 29.375 2.94602 29.375 3.59375C29.375 4.24148 29.8991 4.76562 30.5469 4.76562H31.7578L5.30437 18.9677C4.73445 19.2756 4.52039 19.9862 4.82711 20.555Z" fill="#FC195A"/>
</g>
</g>
</g>
<defs>
<clipPath id="clip0_1_100">
<rect width="40" height="40" rx="10" fill="white"/>
</clipPath>
</defs>
</svg>
