<svg width="40" height="40" viewBox="0 0 40 40" fill="none" xmlns="http://www.w3.org/2000/svg">
<g clip-path="url(#clip0_1_60)">
<path d="M20 8.59375C22.3731 8.59375 24.2969 6.66997 24.2969 4.29688C24.2969 1.92378 22.3731 0 20 0C17.6269 0 15.7031 1.92378 15.7031 4.29688C15.7031 6.66997 17.6269 8.59375 20 8.59375Z" fill="white"/>
<path d="M12.2729 32.4188C11.06 33.7173 9.33469 34.5312 7.42188 34.5312C5.50906 34.5312 3.78375 33.7173 2.57086 32.4188C1.02039 33.4741 0 35.2528 0 37.2656V38.8281C0 39.4753 0.524687 40 1.17188 40H13.6719C14.3191 40 14.8438 39.4753 14.8438 38.8281V37.2656C14.8438 35.2528 13.8234 33.4741 12.2729 32.4188Z" fill="white"/>
<path d="M37.4291 32.4188C36.2162 33.7173 34.4909 34.5312 32.5781 34.5312C30.6653 34.5312 28.94 33.7173 27.7271 32.4188C26.1766 33.4741 25.1562 35.2528 25.1562 37.2656V38.8281C25.1562 39.4753 25.6809 40 26.3281 40H38.8281C39.4753 40 40 39.4753 40 38.8281V37.2656C40 35.2528 38.9796 33.4741 37.4291 32.4188Z" fill="white"/>
<path d="M28.3377 28.582C28.6694 30.6237 30.4442 32.1875 32.5781 32.1875C34.9474 32.1875 36.875 30.2599 36.875 27.8906C36.875 25.5213 34.9474 23.5937 32.5781 23.5937C30.8027 23.5937 29.2752 24.6762 28.6212 26.2159L23.5122 24.6293C23.4559 23.1609 22.495 21.9209 21.1719 21.4516V16.4062H26.25C26.8972 16.4062 27.4219 15.8816 27.4219 15.2344V13.6719C27.4219 11.6591 26.4015 9.88031 24.851 8.82507C23.6381 10.1235 21.9128 10.9375 20 10.9375C18.0872 10.9375 16.3619 10.1235 15.149 8.82507C13.5985 9.88031 12.5781 11.6591 12.5781 13.6719V15.2344C12.5781 15.8816 13.1028 16.4062 13.75 16.4062H18.8281V21.4516C17.505 21.9209 16.5442 23.1608 16.4878 24.6293L11.3788 26.2159C10.7248 24.6762 9.19734 23.5937 7.42188 23.5937C5.05258 23.5937 3.125 25.5213 3.125 27.8906C3.125 30.2599 5.05258 32.1875 7.42188 32.1875C9.55578 32.1875 11.3306 30.6237 11.6623 28.582L17.1834 26.8674C17.8251 27.7251 18.8488 28.2812 20 28.2812C21.1512 28.2812 22.1749 27.7251 22.8166 26.8673L28.3377 28.582Z" fill="white"/>
</g>
<defs>
<clipPath id="clip0_1_60">
<rect width="40" height="40" rx="10" fill="white"/>
</clipPath>
</defs>
</svg>
