<svg width="40" height="40" viewBox="0 0 40 40" fill="none" xmlns="http://www.w3.org/2000/svg">
<g clip-path="url(#clip0_1_27)">
<path d="M10.8848 9.22771L7.57054 5.91349C7.11281 5.45576 6.37116 5.45576 5.91343 5.91349C5.4557 6.37123 5.4557 7.11287 5.91343 7.5706L9.22765 10.8848C9.68538 11.3426 10.427 11.3426 10.8848 10.8848C11.3425 10.4271 11.3425 9.68544 10.8848 9.22771Z" fill="#FC195A"/>
<path d="M5.9375 18.8281H1.17188C0.524141 18.8281 0 19.3523 0 20C0 20.6477 0.524141 21.1719 1.17188 21.1719H5.9375C6.58523 21.1719 7.10938 20.6477 7.10938 20C7.10938 19.3523 6.58523 18.8281 5.9375 18.8281Z" fill="#FC195A"/>
<path d="M38.8281 18.8281H34.0625C33.4148 18.8281 32.8906 19.3523 32.8906 20C32.8906 20.6477 33.4148 21.1719 34.0625 21.1719H38.8281C39.4759 21.1719 40 20.6477 40 20C40 19.3523 39.4759 18.8281 38.8281 18.8281Z" fill="#FC195A"/>
<path d="M34.0866 5.91349C33.6288 5.45576 32.8872 5.45576 32.4295 5.91349L29.1152 9.22771C28.6575 9.68544 28.6575 10.4271 29.1152 10.8848C29.573 11.3426 30.3146 11.3426 30.7724 10.8848L34.0866 7.5706C34.5443 7.11287 34.5443 6.3713 34.0866 5.91349Z" fill="#FC195A"/>
<path d="M20 0C19.3523 0 18.8281 0.524141 18.8281 1.17188V5.9375C18.8281 6.58523 19.3523 7.10938 20 7.10938C20.6477 7.10938 21.1719 6.58523 21.1719 5.9375V1.17188C21.1719 0.524141 20.6477 0 20 0Z" fill="#FC195A"/>
<path d="M26.5625 11.7265C24.0079 9.71084 20.7031 8.98435 17.4688 9.75779C13.7188 10.625 10.6954 13.6015 9.78126 17.3281C8.8672 21.078 9.92188 24.8749 12.6171 27.5233C13.5781 28.4844 14.1406 29.9921 14.1406 31.539V31.7969C14.1406 32.453 14.6562 32.9687 15.3125 32.9687H24.6875C25.3438 32.9687 25.8594 32.453 25.8594 31.7969V31.539C25.8594 30.0155 26.4453 28.4608 27.4766 27.453C29.4454 25.4608 30.5469 22.8125 30.5469 20C30.5469 16.7656 29.0938 13.7421 26.5625 11.7265ZM20 16.4844C18.232 16.4844 16.945 17.6571 16.608 19.0147C16.4546 19.6321 15.8334 20.0261 15.1877 19.8707C14.5606 19.7151 14.1772 19.0787 14.3329 18.4516C14.9135 16.1079 17.1149 14.1406 20 14.1406C20.6477 14.1406 21.1719 14.6647 21.1719 15.3125C21.1719 15.9602 20.6477 16.4844 20 16.4844Z" fill="#FC195A"/>
<path d="M15.3125 35.3125V36.4844C15.3125 38.423 16.8895 40 18.8281 40H21.1719C23.1105 40 24.6875 38.423 24.6875 36.4844V35.3125H15.3125Z" fill="#FC195A"/>
</g>
<defs>
<clipPath id="clip0_1_27">
<rect width="40" height="40" rx="10" fill="white"/>
</clipPath>
</defs>
</svg>
